# xmcd
#
# Track frame offsets: 
#        300
#        19663
#        43205
#        75085
#        91134
#        112486
#        137319
#        157600
#        184217
#        211475
#        230756
#
# Disc length: 3515 seconds
#
# Revision: 0
# Processed by: cddbd v1.5.2PL0 Copyright (c) Steve Scherf et al.
# Submitted via: ExactAudioCopy v1.0b1
#
DISCID=870db70b
DTITLE=Blues Company - Hot And Ready To Serve
DYEAR=2007
DGENRE=Blues Rock
TTITLE0=Till The Lights Go Out
TTITLE1=My Guitar And Me
TTITLE2=Kids
TTITLE3=Hollywood
TTITLE4=Soon Or Later
TTITLE5=Plastic People
TTITLE6=Shake It Don't Break It
TTITLE7=Dark Day
TTITLE8=Doin It Right
TTITLE9=The People
TTITLE10=Hideaway (Peter Gunn Theme)
EXTD=
EXTT0=
EXTT1=
EXTT2=
EXTT3=
EXTT4=
EXTT5=
EXTT6=
EXTT7=
EXTT8=
EXTT9=
EXTT10=
PLAYORDER=
